<?xml version="1.0" encoding="utf-8" ?><svg xmlns="http://www.w3.org/2000/svg" xmlns:xlink="http://www.w3.org/1999/xlink" width="1831" height="1831" viewBox="0 0 1831 1831"><defs><linearGradient id="gradient_0" gradientUnits="userSpaceOnUse" x1="99.814537" y1="288.64163" x2="321.1098" y2="123.67738"><stop offset="0" stop-color="#00194B"/><stop offset="1" stop-color="#6691AD"/></linearGradient></defs><path fill="url(#gradient_0)" transform="scale(3.57606 3.57606)" d="M213.453 166.576C212.331 168.032 207.364 172.842 205.658 174.577L137.895 242.251C129.11 250.997 120.324 259.736 111.441 268.397C95.6518 284.341 69.0105 262.315 82.7368 244.376C84.6208 241.914 87.5489 239.3 89.8266 237.045L138.912 187.915C155.334 171.604 173.875 150.497 191.085 135.682C194.887 131.488 199.276 127.54 203.32 123.568L235.509 91.3807C253.729 73.1685 260.933 75.0216 278.403 92.7929L347.238 162.122C355.042 169.86 365.595 177.237 359.936 190.228C353.928 204.021 337.727 205.671 327.039 195.192L278.856 147.064C273.861 142.117 268.471 136.85 263.707 131.847C253.961 121.61 246.766 133.599 239.375 140.992L219.956 160.163C218.999 161.115 214.12 166.177 213.453 166.576Z"/><path fill="#427AA1" transform="scale(3.57606 3.57606)" d="M302.687 271.826C293.827 272.173 290.336 267.745 284.605 261.979L253.479 230.831C250.473 227.813 244.887 223.128 242.756 219.732C234.504 206.583 242.884 191.921 257.661 190.626C268.261 190.236 272.976 197.36 279.784 204.111L301.563 226.061C305.616 230.162 315.49 238.958 318.358 243.498C326.003 255.602 317.621 271.303 302.687 271.826Z"/><defs><linearGradient id="gradient_1" gradientUnits="userSpaceOnUse" x1="204.3152" y1="396.73059" x2="368.64627" y2="196.05684"><stop offset="0" stop-color="#001B4B"/><stop offset="1" stop-color="#5685A5"/></linearGradient></defs><path fill="url(#gradient_1)" transform="scale(3.57606 3.57606)" d="M256.524 387.362L277.024 367.077C282.021 362.107 287.313 356.628 292.431 351.837C299.748 344.068 307.838 336.514 315.413 328.994L389.521 254.879C396.715 247.774 402.621 238.703 413.685 238.318C427.08 237.852 436.458 253.4 430.87 265.195C428.191 270.85 414.916 283.107 409.923 288.123L351.741 345.958C348.33 349.377 329.743 369.168 326.665 370.796C323.611 375.373 312.461 385.187 308.26 389.365L271.391 426.257C257.336 440.368 244.474 430.317 233.687 419.238L155.692 339.576C138.88 322.554 161.266 295.072 177.817 309.282C182.004 312.877 185.766 317.137 189.704 321.055L214.865 346.009C227.984 359.155 244.267 373.701 256.353 387.168L256.524 387.362Z"/><path fill="#173E6B" transform="scale(3.57606 3.57606)" d="M256.524 321.171C246.303 321.735 242.155 318.155 235.301 311.18L204.183 279.582C201.292 276.693 198.279 273.931 195.504 270.932C184.471 259.005 191.43 241.78 207.002 239.331C217.479 238.105 222.568 244.645 229.282 251.263L251.559 273.614C257.038 279.058 262.829 284.291 268.056 289.89C278.778 301.378 270.895 317.241 256.524 321.171Z"/></svg>